<mxfile host="app.diagrams.net" modified="2024-06-21T16:36:40.306Z" agent="Mozilla/5.0 (Windows NT 10.0; Win64; x64) AppleWebKit/537.36 (KHTML, like Gecko) Chrome/126.0.0.0 Safari/537.36 Edg/126.0.0.0" etag="SoreoaJb0FzBtVJNgBwS" version="24.5.5" type="device">
  <diagram name="Página-1" id="5DcA1XpzbEpcNB3lwu1_">
    <mxGraphModel dx="963" dy="711" grid="1" gridSize="10" guides="1" tooltips="1" connect="1" arrows="1" fold="1" page="1" pageScale="1" pageWidth="827" pageHeight="1169" math="0" shadow="0">
      <root>
        <mxCell id="0" />
        <mxCell id="1" parent="0" />
        <mxCell id="hTO507xSKT4CRlGKkT7h-1" value="" style="edgeStyle=orthogonalEdgeStyle;rounded=0;orthogonalLoop=1;jettySize=auto;html=1;" edge="1" parent="1" source="XX-IUDnQ-n6v1UXTDpO2-1" target="XX-IUDnQ-n6v1UXTDpO2-2">
          <mxGeometry relative="1" as="geometry" />
        </mxCell>
        <mxCell id="XX-IUDnQ-n6v1UXTDpO2-1" value="inicio&amp;nbsp;" style="strokeWidth=2;html=1;shape=mxgraph.flowchart.start_1;whiteSpace=wrap;" parent="1" vertex="1">
          <mxGeometry x="364" y="20" width="100" height="60" as="geometry" />
        </mxCell>
        <mxCell id="hTO507xSKT4CRlGKkT7h-4" value="" style="edgeStyle=orthogonalEdgeStyle;rounded=0;orthogonalLoop=1;jettySize=auto;html=1;" edge="1" parent="1" source="XX-IUDnQ-n6v1UXTDpO2-2" target="hTO507xSKT4CRlGKkT7h-3">
          <mxGeometry relative="1" as="geometry" />
        </mxCell>
        <mxCell id="XX-IUDnQ-n6v1UXTDpO2-2" value="A[10],&lt;div&gt;soma_par,&lt;/div&gt;&lt;div&gt;qtd_par,&lt;/div&gt;&lt;div&gt;i,&lt;/div&gt;&lt;div&gt;media&lt;/div&gt;" style="shape=parallelogram;html=1;strokeWidth=2;perimeter=parallelogramPerimeter;whiteSpace=wrap;rounded=1;arcSize=12;size=0.23;" parent="1" vertex="1">
          <mxGeometry x="350" y="120" width="130" height="80" as="geometry" />
        </mxCell>
        <mxCell id="hTO507xSKT4CRlGKkT7h-3" value="i de 0 ate 10" style="strokeWidth=2;html=1;shape=mxgraph.flowchart.merge_or_storage;whiteSpace=wrap;" vertex="1" parent="1">
          <mxGeometry x="185" y="280" width="140" height="70" as="geometry" />
        </mxCell>
        <mxCell id="hTO507xSKT4CRlGKkT7h-5" value="A[i] % 2 =0" style="strokeWidth=2;html=1;shape=mxgraph.flowchart.decision;whiteSpace=wrap;" vertex="1" parent="1">
          <mxGeometry x="325" y="410" width="100" height="100" as="geometry" />
        </mxCell>
        <mxCell id="hTO507xSKT4CRlGKkT7h-11" value="" style="edgeStyle=orthogonalEdgeStyle;rounded=0;orthogonalLoop=1;jettySize=auto;html=1;" edge="1" parent="1" source="hTO507xSKT4CRlGKkT7h-7" target="hTO507xSKT4CRlGKkT7h-10">
          <mxGeometry relative="1" as="geometry" />
        </mxCell>
        <mxCell id="hTO507xSKT4CRlGKkT7h-18" value="VERDADE" style="edgeLabel;html=1;align=center;verticalAlign=middle;resizable=0;points=[];" vertex="1" connectable="0" parent="hTO507xSKT4CRlGKkT7h-11">
          <mxGeometry x="-0.2889" y="-3" relative="1" as="geometry">
            <mxPoint as="offset" />
          </mxGeometry>
        </mxCell>
        <mxCell id="hTO507xSKT4CRlGKkT7h-7" value="qtd_par &amp;gt; 0" style="strokeWidth=2;html=1;shape=mxgraph.flowchart.decision;whiteSpace=wrap;" vertex="1" parent="1">
          <mxGeometry x="90" y="410" width="100" height="100" as="geometry" />
        </mxCell>
        <mxCell id="hTO507xSKT4CRlGKkT7h-8" style="edgeStyle=orthogonalEdgeStyle;rounded=0;orthogonalLoop=1;jettySize=auto;html=1;exitX=0.5;exitY=1;exitDx=0;exitDy=0;exitPerimeter=0;entryX=0.5;entryY=0;entryDx=0;entryDy=0;entryPerimeter=0;" edge="1" parent="1" source="hTO507xSKT4CRlGKkT7h-3">
          <mxGeometry relative="1" as="geometry">
            <mxPoint x="375" y="410" as="targetPoint" />
          </mxGeometry>
        </mxCell>
        <mxCell id="hTO507xSKT4CRlGKkT7h-9" style="edgeStyle=orthogonalEdgeStyle;rounded=0;orthogonalLoop=1;jettySize=auto;html=1;entryX=0.5;entryY=0;entryDx=0;entryDy=0;entryPerimeter=0;" edge="1" parent="1" source="hTO507xSKT4CRlGKkT7h-3" target="hTO507xSKT4CRlGKkT7h-7">
          <mxGeometry relative="1" as="geometry" />
        </mxCell>
        <mxCell id="hTO507xSKT4CRlGKkT7h-10" value="&amp;nbsp; &amp;nbsp;A media dos elementos pares é: media&lt;div&gt;&lt;br&gt;&lt;/div&gt;&lt;div&gt;&amp;nbsp; &amp;nbsp; &amp;nbsp;numeros maiores que a media&lt;/div&gt;" style="strokeWidth=2;html=1;shape=mxgraph.flowchart.display;whiteSpace=wrap;" vertex="1" parent="1">
          <mxGeometry x="50" y="600" width="180" height="120" as="geometry" />
        </mxCell>
        <mxCell id="hTO507xSKT4CRlGKkT7h-13" value="i de 0 ate 10" style="strokeWidth=2;html=1;shape=mxgraph.flowchart.merge_or_storage;whiteSpace=wrap;" vertex="1" parent="1">
          <mxGeometry x="540" y="280" width="140" height="70" as="geometry" />
        </mxCell>
        <mxCell id="hTO507xSKT4CRlGKkT7h-14" style="edgeStyle=orthogonalEdgeStyle;rounded=0;orthogonalLoop=1;jettySize=auto;html=1;entryX=0.5;entryY=0;entryDx=0;entryDy=0;entryPerimeter=0;" edge="1" parent="1" source="XX-IUDnQ-n6v1UXTDpO2-2" target="hTO507xSKT4CRlGKkT7h-13">
          <mxGeometry relative="1" as="geometry" />
        </mxCell>
        <mxCell id="hTO507xSKT4CRlGKkT7h-19" value="" style="edgeStyle=orthogonalEdgeStyle;rounded=0;orthogonalLoop=1;jettySize=auto;html=1;" edge="1" parent="1" source="hTO507xSKT4CRlGKkT7h-15" target="hTO507xSKT4CRlGKkT7h-17">
          <mxGeometry relative="1" as="geometry" />
        </mxCell>
        <mxCell id="hTO507xSKT4CRlGKkT7h-20" value="VERDADE" style="edgeLabel;html=1;align=center;verticalAlign=middle;resizable=0;points=[];" vertex="1" connectable="0" parent="hTO507xSKT4CRlGKkT7h-19">
          <mxGeometry x="-0.3" y="-1" relative="1" as="geometry">
            <mxPoint as="offset" />
          </mxGeometry>
        </mxCell>
        <mxCell id="hTO507xSKT4CRlGKkT7h-22" value="" style="edgeStyle=orthogonalEdgeStyle;rounded=0;orthogonalLoop=1;jettySize=auto;html=1;" edge="1" parent="1" source="hTO507xSKT4CRlGKkT7h-15" target="hTO507xSKT4CRlGKkT7h-21">
          <mxGeometry relative="1" as="geometry" />
        </mxCell>
        <mxCell id="hTO507xSKT4CRlGKkT7h-24" value="FALSO" style="edgeLabel;html=1;align=center;verticalAlign=middle;resizable=0;points=[];" vertex="1" connectable="0" parent="hTO507xSKT4CRlGKkT7h-22">
          <mxGeometry x="-0.28" y="-3" relative="1" as="geometry">
            <mxPoint as="offset" />
          </mxGeometry>
        </mxCell>
        <mxCell id="hTO507xSKT4CRlGKkT7h-15" value="A[i] &amp;gt; media" style="strokeWidth=2;html=1;shape=mxgraph.flowchart.decision;whiteSpace=wrap;" vertex="1" parent="1">
          <mxGeometry x="460" y="410" width="100" height="100" as="geometry" />
        </mxCell>
        <mxCell id="hTO507xSKT4CRlGKkT7h-16" style="edgeStyle=orthogonalEdgeStyle;rounded=0;orthogonalLoop=1;jettySize=auto;html=1;entryX=0.5;entryY=0;entryDx=0;entryDy=0;entryPerimeter=0;" edge="1" parent="1" source="hTO507xSKT4CRlGKkT7h-13" target="hTO507xSKT4CRlGKkT7h-15">
          <mxGeometry relative="1" as="geometry" />
        </mxCell>
        <mxCell id="hTO507xSKT4CRlGKkT7h-17" value="A[i]," style="strokeWidth=2;html=1;shape=mxgraph.flowchart.display;whiteSpace=wrap;" vertex="1" parent="1">
          <mxGeometry x="460" y="580" width="100" height="70" as="geometry" />
        </mxCell>
        <mxCell id="hTO507xSKT4CRlGKkT7h-21" value="nao ha elementos pares nesse vetor" style="strokeWidth=2;html=1;shape=mxgraph.flowchart.display;whiteSpace=wrap;" vertex="1" parent="1">
          <mxGeometry x="650" y="430" width="100" height="60" as="geometry" />
        </mxCell>
        <mxCell id="hTO507xSKT4CRlGKkT7h-29" value="" style="edgeStyle=orthogonalEdgeStyle;rounded=0;orthogonalLoop=1;jettySize=auto;html=1;" edge="1" parent="1" source="hTO507xSKT4CRlGKkT7h-25" target="hTO507xSKT4CRlGKkT7h-28">
          <mxGeometry relative="1" as="geometry" />
        </mxCell>
        <mxCell id="hTO507xSKT4CRlGKkT7h-25" value="" style="strokeWidth=2;html=1;shape=mxgraph.flowchart.start_2;whiteSpace=wrap;" vertex="1" parent="1">
          <mxGeometry x="314" y="780" width="50" height="50" as="geometry" />
        </mxCell>
        <mxCell id="hTO507xSKT4CRlGKkT7h-26" style="edgeStyle=orthogonalEdgeStyle;rounded=0;orthogonalLoop=1;jettySize=auto;html=1;entryX=0;entryY=0.5;entryDx=0;entryDy=0;entryPerimeter=0;" edge="1" parent="1" source="hTO507xSKT4CRlGKkT7h-10" target="hTO507xSKT4CRlGKkT7h-25">
          <mxGeometry relative="1" as="geometry" />
        </mxCell>
        <mxCell id="hTO507xSKT4CRlGKkT7h-27" style="edgeStyle=orthogonalEdgeStyle;rounded=0;orthogonalLoop=1;jettySize=auto;html=1;entryX=1;entryY=0.5;entryDx=0;entryDy=0;entryPerimeter=0;" edge="1" parent="1" source="hTO507xSKT4CRlGKkT7h-17" target="hTO507xSKT4CRlGKkT7h-25">
          <mxGeometry relative="1" as="geometry" />
        </mxCell>
        <mxCell id="hTO507xSKT4CRlGKkT7h-28" value="fim" style="strokeWidth=2;html=1;shape=mxgraph.flowchart.start_1;whiteSpace=wrap;" vertex="1" parent="1">
          <mxGeometry x="289" y="910" width="100" height="60" as="geometry" />
        </mxCell>
      </root>
    </mxGraphModel>
  </diagram>
</mxfile>
